<svg xmlns="http://www.w3.org/2000/svg" width="1193.635" height="1223.224" viewBox="0 0 1193.635 1223.224">
  <defs>
    <style>
      .cls-1 {
        fill: #eee;
      }

      .cls-2, .cls-4, .cls-5, .cls-6, .cls-7, .cls-8 {
        stroke: #707070;
      }

      .cls-3 {
        fill: #7d574f;
        stroke: #47423c;
      }

      .cls-4 {
        fill: #4c4558;
      }

      .cls-5 {
        fill: #191a21;
      }

      .cls-6 {
        fill: #292a2f;
      }

      .cls-7 {
        fill: rgba(21,22,27,0.9);
      }

      .cls-8 {
        fill: rgba(25,26,33,0.9);
      }
    </style>
  </defs>
  <g id="Gruppe_1" data-name="Gruppe 1" transform="translate(-83.78 -2254.92)">
    <path id="Pfad_1" data-name="Pfad 1" class="cls-1" d="M357.7,2451.91c253.292-90.234,565.372-67.656,565.372-67.656l166.053-112.517,34.2,287.135,154.09,466.492-188.29,288.416L896.332,3446.136l-204.455,32.008L357.7,3377.093l-171.14-293.744v-368.3L83.78,2451.91l102.78-144.439,142.593,120.346Z"/>
    <path id="Pfad_2" data-name="Pfad 2" class="cls-1" d="M838.93,3018.408h0L593.44,3060.871l-23.818,80.283-43.5,146.61L680.6,3478.145l230.532-41.981,41.679-148.4V3123.52Z"/>
    <path id="Pfad_3" data-name="Pfad 3" class="cls-2" d="M872.145,3244.054,741.8,3284.547H633.289v68.52l79.4,24.388,121-24.388,38.462-68.52"/>
    <path id="Pfad_4" data-name="Pfad 4" class="cls-3" d="M945.571,3276.4l-45.881,86.957-76.3,25.052h-220.6l-39.648-25.052,39.648,69.043,89.249,27.323h131.35l76.3-27.323,45.881-69.043Z"/>
    <path id="Pfad_5" data-name="Pfad 5" class="cls-4" d="M521.26,2978.257l52.516,25.052-52.516,34-27.786-34"/>
    <path id="Pfad_6" data-name="Pfad 6" class="cls-4" d="M920.66,2928.515l24.65,45.841H861.63v-45.841Z"/>
    <path id="Pfad_7" data-name="Pfad 7" class="cls-5" d="M195.086,2417.569v168.043h58.829Z"/>
    <path id="Pfad_8" data-name="Pfad 8" class="cls-6" d="M1082.611,2302.786l-62.529,110.159,62.529,58.105Z"/>
    <path id="Pfad_10" data-name="Pfad 10" class="cls-7" d="M891.444,2859.251l126.708,87.307,25.894,111.979-25.894,45.454-163.381-75.448-21.731-16.5V2907.881l49.452-53.077Z"/>
    <path id="Pfad_11" data-name="Pfad 11" class="cls-7" d="M533.625,2901.422l64.485,45.3v84.664l-67.3,74.363-48.857,2.51H450.726l-31.768-91.6,28.763-67.464Z"/>
    <path id="Pfad_12" data-name="Pfad 12" class="cls-8" d="M195.086,2323.053,93.121,2446.487l101.964,245.367L344.8,2462.077Z"/>
    <path id="Pfad_13" data-name="Pfad 13" class="cls-8" d="M952.809,2369.219l122.951-113.4,19.5,62.756v177.572Z"/>
  </g>
</svg>
